<svg xmlns="http://www.w3.org/2000/svg" style="display: none;">
  <symbol id="geo">
    <path
      d="M9.98212 9.9355L5.83397 14L1.68582 9.87098C-0.582694 7.61292 -0.582694 3.9355 1.68582 1.67743C3.95434 -0.580629 7.64879 -0.580629 9.91731 1.67743C12.2506 4.00001 12.2506 7.61292 9.98212 9.9355ZM5.83397 7.74195C6.93582 7.74195 7.77842 6.90324 7.77842 5.80647C7.77842 4.70969 6.93582 3.87098 5.83397 3.87098C4.73212 3.87098 3.88953 4.70969 3.88953 5.80647C3.88953 6.90324 4.73212 7.74195 5.83397 7.74195Z" />
  </symbol>

  <symbol id="arrow">
    <path d="M1 1L5 5L9 1" stroke-width="2" />
  </symbol>

  <symbol id="arrow-big">
    <path d="M1 1L6 6L11 1" stroke-width="2" />
  </symbol>

  <symbol id="arrow-big-search">
    <path d="M1 13.5L7 7.5L0.999999 1.5" stroke-width="2" />
  </symbol>

  <symbol id="wezom-logo">
    <path fill-rule="evenodd" clip-rule="evenodd"
      d="M111.763 2.45309C110.368 1.06641 108.483 0.28833 106.519 0.28833C104.554 0.28833 102.67 1.06641 101.275 2.45309L76.3845 27.789C74.9665 29.2537 74.1733 31.2146 74.1733 33.2557C74.1733 35.2968 74.9665 37.2576 76.3845 38.7223C77.0757 39.4398 77.904 40.0104 78.8199 40.4002C79.7359 40.7899 80.7207 40.9907 81.7157 40.9907C82.7107 40.9907 83.6956 40.7899 84.6115 40.4002C85.5274 40.0104 86.3557 39.4398 87.0469 38.7223L111.763 13.4215C113.183 11.9508 113.977 9.98417 113.977 7.93728C113.977 5.89039 113.183 3.92373 111.763 2.45309Z" />
    <path fill-rule="evenodd" clip-rule="evenodd"
      d="M51.7037 2.45307C52.3974 1.73995 53.2264 1.17322 54.142 0.786259C55.0576 0.399302 56.0412 0.199951 57.0349 0.199951C58.0285 0.199951 59.0121 0.399302 59.9277 0.786259C60.8433 1.17322 61.6723 1.73995 62.366 2.45307L87.0818 27.789C88.4998 29.2537 89.293 31.2145 89.293 33.2556C89.293 35.2967 88.4998 37.2576 87.0818 38.7223C86.3906 39.4398 85.5623 40.0104 84.6464 40.4001C83.7305 40.7899 82.7456 40.9907 81.7506 40.9907C80.7556 40.9907 79.7707 40.7899 78.8548 40.4001C77.9389 40.0104 77.1106 39.4398 76.4194 38.7223L51.7037 13.4215C50.2752 11.9551 49.4755 9.98682 49.4755 7.93726C49.4755 5.88771 50.2752 3.91944 51.7037 2.45307Z" />
    <path fill-rule="evenodd" clip-rule="evenodd"
      d="M62.4011 2.45297C61.7099 1.73548 60.8816 1.16487 59.9657 0.775144C59.0497 0.38542 58.0649 0.18457 57.0699 0.18457C56.0748 0.18457 55.09 0.38542 54.1741 0.775144C53.2582 1.16487 52.4299 1.73548 51.7387 2.45297L27.023 27.7889C25.6049 29.2536 24.8118 31.2144 24.8118 33.2555C24.8118 35.2966 25.6049 37.2575 27.023 38.7222C27.7167 39.4353 28.5457 40.0021 29.4613 40.389C30.3769 40.776 31.3605 40.9753 32.3541 40.9753C33.3478 40.9753 34.3314 40.776 35.247 40.389C36.1626 40.0021 36.9916 39.4353 37.6853 38.7222L62.4011 13.3863C63.8191 11.9216 64.6123 9.96073 64.6123 7.91964C64.6123 5.87854 63.8191 3.91771 62.4011 2.45297Z" />
    <path fill-rule="evenodd" clip-rule="evenodd"
      d="M2.2024 2.27778C2.8961 1.56466 3.72517 0.997923 4.64076 0.610966C5.55636 0.224009 6.53995 0.0246582 7.53359 0.0246582C8.52723 0.0246582 9.51083 0.224009 10.4264 0.610966C11.342 0.997923 12.1711 1.56466 12.8648 2.27778L37.5805 27.6137C38.9986 29.0784 39.7917 31.0392 39.7917 33.0803C39.7917 35.1214 38.9986 37.0823 37.5805 38.547C36.8868 39.2601 36.0577 39.8269 35.1421 40.2138C34.2266 40.6008 33.243 40.8001 32.2493 40.8001C31.2557 40.8001 30.2721 40.6008 29.3565 40.2138C28.4409 39.8269 27.6118 39.2601 26.9181 38.547L2.2024 13.2111C0.78434 11.7464 -0.00878906 9.78554 -0.00878906 7.74445C-0.00878906 5.70335 0.78434 3.74252 2.2024 2.27778Z" />
  </symbol>

  <symbol id="search">
    <circle cx="11" cy="11" r="10" stroke-width="2" stroke-miterlimit="10" />
    <line x1="18.4142" y1="18" x2="25" y2="24.5858" stroke-width="2" stroke-miterlimit="10" stroke-linecap="round" />
  </symbol>

  <symbol id="profile">
    <circle cx="11" cy="8" r="6" stroke-width="2" stroke-miterlimit="10" />
    <path d="M1 24C1 20.6863 3.68629 18 7 18H15C18.3137 18 21 20.6863 21 24V27H1V24Z" stroke-width="2"
      stroke-miterlimit="10" />
  </symbol>

  <symbol id="favourite">
    <path
      d="M12.8851 2.79804L13.5572 3.38524L14.2167 2.78397C16.9291 0.311181 21.3252 0.426158 23.9257 3.02267C26.6458 5.73872 26.6506 9.98156 24.1757 12.7006L13.5346 23.5785L2.77895 12.8391C0.298907 9.98414 0.440341 5.73856 3.02511 3.1577C5.76372 0.423248 10.0358 0.308743 12.8851 2.79804Z"
      stroke-width="2" />
  </symbol>

  <symbol id="basket">
    <path
      d="M2.00005 11.5999C1.90005 11.0999 2.30005 10.4999 2.80005 10.3999C2.90005 10.3999 2.90005 10.3999 3.00005 10.3999H27.6C28.2 10.3999 28.6 10.7999 28.6 11.3999C28.6 11.4999 28.6 11.4999 28.6 11.5999L26 26.5999C25.9 27.0999 25.5 27.3999 25 27.3999H5.60005C5.10005 27.3999 4.70005 27.0999 4.60005 26.5999L2.00005 11.5999Z"
      stroke-width="2" stroke-miterlimit="10" />
    <path d="M11.8 1.3999L7.80005 9.3999M18.8 1.3999L22.8 9.3999L18.8 1.3999Z" stroke-width="2" stroke-miterlimit="10"
      stroke-linecap="round" stroke-linejoin="round" />
  </symbol>

  <symbol id="arrow-filter">
    <path d="M1 1L7 7L1 13" stroke-width="2" />
  </symbol>

  <symbol id="star">
    <path
      d="M5.52984 1.29906C5.68901 0.859269 6.31099 0.859268 6.47016 1.29906L7.57584 4.35409C7.64542 4.54637 7.82508 4.67689 8.02945 4.68366L11.2766 4.79117C11.7441 4.80664 11.9363 5.39818 11.5672 5.68546L9.00337 7.68108C8.84201 7.80668 8.77338 8.01787 8.8301 8.21433L9.73129 11.3358C9.86102 11.7852 9.35784 12.1507 8.97057 11.8885L6.28035 10.0668C6.11103 9.95218 5.88897 9.95218 5.71965 10.0668L3.02943 11.8885C2.64216 12.1507 2.13897 11.7852 2.26871 11.3358L3.1699 8.21433C3.22662 8.01787 3.15799 7.80668 2.99663 7.68108L0.432795 5.68546C0.0637175 5.39818 0.255917 4.80664 0.723366 4.79117L3.97055 4.68366C4.17492 4.67689 4.35458 4.54637 4.42416 4.35409L5.52984 1.29906Z" />
  </symbol>

  <symbol id="arrow-price">
    <path
      d="M5.30989 10.6264H7.01331L4.81749 12.8222L5.99525 14L10.2205 9.77472L10.1939 9.7481L10.2205 9.72148L6.00191 5.50285L4.82415 6.68061L7.10647 8.96293H5.30989C3.30038 8.96293 1.6635 7.32605 1.6635 5.31654C1.6635 3.30703 3.30038 1.6635 5.30989 1.6635C7.3194 1.6635 8.95628 3.30038 8.95628 5.30989H10.6198C10.6198 2.38213 8.23765 0 5.30989 0C2.38213 0 0 2.38213 0 5.30989C0 8.23764 2.38213 10.6264 5.30989 10.6264Z" />
  </symbol>

  <symbol id="deal-basket">
    <path
      d="M1.68959 7.99995C1.62063 7.65512 1.89649 7.24133 2.24132 7.17236C2.31028 7.17236 2.31028 7.17236 2.37925 7.17236H19.3448C19.7586 7.17236 20.0344 7.44823 20.0344 7.86202C20.0344 7.93098 20.0344 7.93098 20.0344 7.99995L18.2413 18.3448C18.1724 18.6896 17.8965 18.8965 17.5517 18.8965H4.17235C3.82752 18.8965 3.55166 18.6896 3.4827 18.3448L1.68959 7.99995Z"
      stroke-width="2" stroke-miterlimit="10" />
    <path d="M8.44832 0.965332L5.6897 6.48257M13.2759 0.965332L16.0345 6.48257L13.2759 0.965332Z" stroke-width="2"
      stroke-miterlimit="10" stroke-linecap="round" stroke-linejoin="round" />
  </symbol>

  <symbol id="search-paw">
    <path
      d="M22.9736 11.0753L22.9727 11.0791C22.5372 12.904 21.6773 14.4351 20.6884 15.4255C19.6843 16.4311 18.6825 16.7649 17.8865 16.5871C17.092 16.4097 16.3508 15.6986 15.9061 14.3927C15.4666 13.1024 15.3827 11.3777 15.8176 9.55373C16.2683 7.6987 17.1293 6.1687 18.1123 5.18675C19.1082 4.19196 20.103 3.86508 20.9043 4.04398C21.7064 4.22307 22.4515 4.92951 22.8967 6.22193C23.3378 7.5022 23.4229 9.22461 22.9736 11.0753ZM1.92795 33.4389L1.92716 33.438C1.06731 32.4421 1.05693 31.1124 2.01409 29.4259C2.97523 27.7325 4.80877 25.9242 7.09633 24.3738C9.37319 22.8307 12.0172 21.5993 14.5207 21.0064C17.048 20.4078 19.2828 20.4924 20.8732 21.3704C22.449 22.2403 23.7053 24.0811 24.5428 26.5383C25.372 28.9714 25.7389 31.8653 25.6463 34.6143C25.5533 37.3764 25.0001 39.8906 24.0768 41.6036C23.1587 43.3069 22.0235 44.0072 20.7068 43.8042L20.7029 43.8036C19.2771 43.5895 18.4296 43.2039 17.8696 42.7788C17.3099 42.3538 16.9553 41.8288 16.6027 41.17C16.51 40.9968 16.4178 40.8128 16.3216 40.6209C15.6929 39.3668 14.8967 37.7786 12.723 36.7082L12.6121 36.6469L12.4801 36.5741L12.348 36.5012L12.2369 36.4398C10.1476 35.1568 8.36789 35.3241 6.96022 35.4564C6.74849 35.4763 6.54517 35.4954 6.35048 35.5087C5.60048 35.5598 4.96509 35.5388 4.30587 35.2909C3.64675 35.0431 2.8688 34.5313 1.92795 33.4389ZM36.9677 24.2306C38.24 24.2134 39.0891 24.6487 39.5034 25.3056C39.8959 25.9548 39.9221 26.9615 39.3606 28.1837C38.8069 29.3889 37.7365 30.6534 36.2507 31.6309L36.2448 31.6349C34.7385 32.6413 33.1862 33.1208 31.9188 33.1379C30.6432 33.1551 29.7929 32.7175 29.3799 32.0576C28.9661 31.3966 28.9378 30.3949 29.504 29.1782C30.0626 27.978 31.1452 26.7182 32.6358 25.7375L32.6417 25.7336C34.148 24.7272 35.7003 24.2476 36.9677 24.2306ZM28.463 14.11L28.4657 14.1072C29.7924 12.7408 31.2952 11.895 32.6137 11.5861C33.9446 11.2742 34.9394 11.5283 35.5184 12.1116C36.0967 12.6943 36.3502 13.7103 36.039 15.0831C35.7318 16.4387 34.8954 17.9831 33.5649 19.3534C32.2382 20.7197 30.7354 21.5655 29.417 21.8745C28.0861 22.1864 27.0912 21.9323 26.5123 21.349C25.9377 20.7701 25.6863 19.7445 26.0023 18.3589C26.3134 16.9944 27.1508 15.4509 28.463 14.11ZM10.9099 13.7438C10.8744 15.5277 10.3851 17.1151 9.66712 18.2273C8.93927 19.3547 8.07655 19.8646 7.29674 19.8666C6.52676 19.8687 5.70924 19.379 5.04294 18.2778C4.38222 17.1858 3.961 15.6122 3.99663 13.8252C4.0322 12.0412 4.52143 10.4538 5.23944 9.34162C5.96729 8.2142 6.83001 7.70437 7.60982 7.70227C8.3798 7.70021 9.19732 8.18987 9.86362 9.29114C10.5243 10.3832 10.9456 11.9567 10.9099 13.7438Z"
      stroke="#8D58E3" stroke-width="2" />
  </symbol>

  <symbol id="play-img">
    <circle cx="32" cy="32" r="30.5" fill="black" fill-opacity="0.4" stroke="white" stroke-width="3" />
    <path
      d="M25 40.207V23.7044C25 22.9408 25.8212 22.4589 26.4878 22.8314L40.515 30.6702C41.181 31.0423 41.2017 31.993 40.5527 32.3939L26.5255 41.0578C25.8593 41.4693 25 40.99 25 40.207Z"
      fill="white" />
  </symbol>

  <symbol id="benefits-delivery">
    <path
      d="M8.74216 8.80078H5.51645C4.8152 8.80078 4.25421 9.36178 4.25421 10.063C4.25421 10.7643 4.8152 11.3253 5.51645 11.3253H8.74216C9.4434 11.3253 10.0044 10.7643 10.0044 10.063C10.0044 9.36178 9.4434 8.80078 8.74216 8.80078Z" />
    <path
      d="M8.74218 14.7378H3.36599C2.66475 14.7378 2.10376 15.2988 2.10376 16C2.10376 16.7013 2.66475 17.2623 3.36599 17.2623H8.74218C9.44342 17.2623 10.0044 16.7013 10.0044 16C10.0044 15.2988 9.44342 14.7378 8.74218 14.7378Z" />
    <path
      d="M8.74215 20.6279H1.26224C0.560993 20.6279 0 21.1889 0 21.8902C0 22.5914 0.560993 23.1524 1.26224 23.1524H8.74215C9.44339 23.1524 10.0044 22.5914 10.0044 21.8902C10.0044 21.1889 9.44339 20.6279 8.74215 20.6279Z" />
    <path
      d="M43.664 6.69686L29.4522 0.105186C29.1249 -0.0350621 28.7042 -0.0350621 28.3769 0.105186L14.1651 6.69686C13.6976 6.88386 13.4171 7.35135 13.4171 7.8656V24.1812C13.4171 24.6954 13.6976 25.1161 14.1651 25.3499L28.3769 31.8948C28.7042 32.0351 29.1249 32.0351 29.4522 31.8948L43.664 25.3031C44.1315 25.1161 44.412 24.6486 44.412 24.1344V7.8656C44.412 7.35135 44.1315 6.93061 43.664 6.69686ZM27.6289 28.7626L15.9416 23.3397V9.82907L20.2425 11.8393V19.3192C20.2425 20.0205 20.8035 20.5814 21.5048 20.5814C22.206 20.5814 22.767 20.0205 22.767 19.3192V13.008L27.6289 15.252V28.7626ZM28.9379 13.0548L24.5902 11.0446L29.2652 8.89408C29.9197 8.61359 30.2002 7.8656 29.8729 7.2111C29.5924 6.55661 28.8444 6.27611 28.1899 6.60336L21.5983 9.68882L17.7648 7.91235L28.9847 2.72316L40.2046 7.91235L28.9379 13.0548ZM41.8875 23.3397L30.2002 28.7626V15.252L41.8875 9.82907V23.3397Z" />
    <path
      d="M33.7999 19.2256C33.9869 19.2256 34.1739 19.1789 34.3141 19.0854L38.7553 17.0284C39.4098 16.7479 39.6903 15.9999 39.3631 15.3454C39.0826 14.691 38.3346 14.4105 37.6801 14.7377L33.2389 16.7947C32.5844 17.0752 32.3039 17.8232 32.6311 18.4777C32.8649 18.9452 33.3324 19.2256 33.7999 19.2256Z" />
    <path
      d="M33.7999 23.9942C33.9869 23.9942 34.1739 23.9475 34.3141 23.854L38.7553 21.797C39.4098 21.5165 39.6903 20.7685 39.3631 20.114C39.0826 19.4595 38.3346 19.179 37.6801 19.5063L33.2389 21.5632C32.5844 21.8437 32.3039 22.5917 32.6311 23.2462C32.8649 23.7137 33.3324 23.9942 33.7999 23.9942Z" />
  </symbol>

  <symbol id="benefits-sales">
    <path
      d="M1.5894 32V19.0199L1.37748 18.9139C0.529801 18.4371 0 17.4834 0 16.5298V11.2318C0 9.69536 1.21854 8.47682 2.75497 8.47682H4.07947L3.76159 7.84106C3.39073 7.09934 3.17881 6.25166 3.17881 5.40397C3.17881 3.97351 3.76159 2.59603 4.76821 1.5894C5.77483 0.582781 7.15232 0 8.58278 0C10.9139 0 13.1921 1.11258 14.6225 3.01987L14.9404 3.49669L15.2583 3.01987C16.6887 1.11258 18.9669 0 21.298 0C22.1457 0 22.9934 0.211921 23.7351 0.582781C26.3841 1.96026 27.4437 5.19205 26.0662 7.84106L25.8013 8.47682H27.1258C28.6623 8.47682 29.8808 9.69536 29.8808 11.2318V16.5298C29.8808 17.4834 29.351 18.4371 28.5033 18.9139L28.2914 19.0199V32H1.5894ZM16.106 29.6689H25.9603V19.2848H16.106V29.6689ZM3.92053 29.6689H13.7748V19.2848H3.92053V29.6689ZM16.106 16.9536H27.5497V10.8079H16.106V16.9536ZM2.33113 16.9536H13.7748V10.8079H2.33113V16.9536ZM21.298 2.33113C18.4371 2.33113 16.106 4.66225 16.106 7.52318V8.47682H21.298C22.9934 8.47682 24.3709 7.09934 24.3709 5.40397C24.3709 3.70861 22.9934 2.33113 21.298 2.33113ZM8.58278 2.33113C6.88742 2.33113 5.50993 3.70861 5.50993 5.40397C5.50993 7.09934 6.88742 8.47682 8.58278 8.47682H13.7748V7.52318C13.7748 4.66225 11.4437 2.33113 8.58278 2.33113Z" />
  </symbol>

  <symbol id="benefits-outlets">
    <path
      d="M16.0001 16C14.457 16 12.9771 15.387 11.886 14.2959C10.7949 13.2048 10.1819 11.7249 10.1819 10.1818V1.45455C10.1819 1.06878 10.3351 0.698807 10.6079 0.426026C10.8807 0.153246 11.2507 0 11.6364 0H20.3637C20.7495 0 21.1194 0.153246 21.3922 0.426026C21.665 0.698807 21.8182 1.06878 21.8182 1.45455V10.1818C21.8182 11.7249 21.2053 13.2048 20.1141 14.2959C19.023 15.387 17.5431 16 16.0001 16ZM13.091 2.90909V10.1818C13.091 10.9534 13.3975 11.6933 13.943 12.2389C14.4886 12.7844 15.2285 13.0909 16.0001 13.0909C16.7716 13.0909 17.5115 12.7844 18.0571 12.2389C18.6027 11.6933 18.9092 10.9534 18.9092 10.1818V2.90909H13.091Z" />
    <path
      d="M6.54558 16C5.5356 16.0197 4.53635 15.7899 3.63649 15.3309C2.53929 14.7922 1.61615 13.9552 0.972965 12.9158C0.329783 11.8764 -0.0073908 10.6768 0.000122891 9.45455C0.000321296 9.28588 0.0298522 9.11854 0.0873955 8.96L2.99649 0.96C3.09812 0.678879 3.2839 0.4359 3.52855 0.264126C3.7732 0.0923526 4.06483 0.000127185 4.36376 0H11.6365C12.0223 0 12.3922 0.153246 12.665 0.426026C12.9378 0.698807 13.091 1.06878 13.091 1.45455V9.45455C13.0872 11.1893 12.3963 12.852 11.1697 14.0786C9.94299 15.3053 8.28036 15.9962 6.54558 16ZM2.90921 9.68727C2.95348 10.3296 3.16819 10.9486 3.53124 11.4804C3.89428 12.0122 4.39253 12.4376 4.97467 12.7127C5.45933 12.9658 5.99884 13.0957 6.54558 13.0909C7.51 13.0909 8.43492 12.7078 9.11687 12.0258C9.79882 11.3439 10.1819 10.419 10.1819 9.45455V2.90909H5.38194L2.90921 9.68727Z" />
    <path
      d="M25.4546 16C23.7199 15.9962 22.0572 15.3053 20.8305 14.0786C19.6039 12.852 18.913 11.1893 18.9092 9.45455V1.45455C18.9092 1.06878 19.0624 0.698807 19.3352 0.426026C19.608 0.153246 19.978 0 20.3637 0H27.6365C27.9354 0.000127185 28.227 0.0923526 28.4717 0.264126C28.7163 0.4359 28.9021 0.678879 29.0037 0.96L31.9128 8.96C31.9704 9.11854 31.9999 9.28588 32.0001 9.45455C31.9991 10.6935 31.6458 11.9066 30.9813 12.9522C30.3168 13.9979 29.3686 14.833 28.2474 15.36C27.3807 15.7928 26.4232 16.0122 25.4546 16ZM21.8183 2.90909V9.45455C21.8183 10.419 22.2014 11.3439 22.8833 12.0258C23.5653 12.7078 24.4902 13.0909 25.4546 13.0909C25.96 13.0889 26.458 12.9694 26.9092 12.7418C27.5153 12.4779 28.0385 12.0544 28.4227 11.5164C28.807 10.9785 29.038 10.3462 29.091 9.68727L26.6183 2.90909H21.8183Z" />
    <path
      d="M27.6365 32H4.36373C3.97796 32 3.60799 31.8468 3.33521 31.574C3.06243 31.3012 2.90918 30.9312 2.90918 30.5455V14.0364C2.91022 13.7878 2.97494 13.5436 3.09716 13.3272C3.21939 13.1108 3.39504 12.9293 3.60736 12.8C3.82848 12.6723 4.07931 12.6051 4.33463 12.6051C4.58996 12.6051 4.84079 12.6723 5.06191 12.8C5.51312 13.0276 6.01109 13.1471 6.51645 13.1491C7.00136 13.153 7.48217 13.0599 7.93057 12.8753C8.37897 12.6907 8.78591 12.4182 9.12745 12.074C9.46899 11.7297 9.73822 11.3206 9.91931 10.8708C10.1004 10.4209 10.1897 9.93941 10.1819 9.45455C10.1819 9.06878 10.3352 8.69881 10.6079 8.42603C10.8807 8.15325 11.2507 8 11.6365 8C12.0222 8 12.3922 8.15325 12.665 8.42603C12.9378 8.69881 13.091 9.06878 13.091 9.45455V10.1818C13.091 10.9534 13.3975 11.6933 13.9431 12.2389C14.4886 12.7844 15.2285 13.0909 16.0001 13.0909C16.7716 13.0909 17.5116 12.7844 18.0571 12.2389C18.6027 11.6933 18.9092 10.9534 18.9092 10.1818V9.45455C18.9092 9.06878 19.0624 8.69881 19.3352 8.42603C19.608 8.15325 19.978 8 20.3637 8C20.7495 8 21.1195 8.15325 21.3922 8.42603C21.665 8.69881 21.8183 9.06878 21.8183 9.45455C21.8183 10.419 22.2014 11.3439 22.8833 12.0258C23.5653 12.7078 24.4902 13.0909 25.4546 13.0909C25.96 13.0889 26.458 12.9694 26.9092 12.7418C27.1303 12.6142 27.3811 12.5469 27.6365 12.5469C27.8918 12.5469 28.1426 12.6142 28.3637 12.7418C28.576 12.8711 28.7517 13.0526 28.8739 13.269C28.9961 13.4855 29.0609 13.7296 29.0619 13.9782V30.5455C29.062 30.9262 28.9127 31.2919 28.6462 31.5638C28.3797 31.8358 28.0172 31.9924 27.6365 32ZM5.81827 29.0909H26.1819V16C25.9397 16.0149 25.6968 16.0149 25.4546 16C24.5278 15.9987 23.6117 15.801 22.7668 15.4199C21.9219 15.0388 21.1673 14.483 20.5528 13.7891C20.0079 14.4739 19.3156 15.0269 18.5273 15.407C17.7391 15.7872 16.8752 15.9846 16.0001 15.9846C15.125 15.9846 14.2611 15.7872 13.4729 15.407C12.6846 15.0269 11.9923 14.4739 11.4474 13.7891C10.7523 14.5784 9.87906 15.1906 8.90012 15.5751C7.92119 15.9596 6.86472 16.1053 5.81827 16V29.0909Z" />
    <path
      d="M30.5456 31.9999H1.45467C1.0689 31.9999 0.698929 31.8467 0.426149 31.5739C0.153368 31.3011 0.00012207 30.9311 0.00012207 30.5454C0.00012207 30.1596 0.153368 29.7896 0.426149 29.5168C0.698929 29.2441 1.0689 29.0908 1.45467 29.0908H30.5456C30.9313 29.0908 31.3013 29.2441 31.5741 29.5168C31.8469 29.7896 32.0001 30.1596 32.0001 30.5454C32.0001 30.9311 31.8469 31.3011 31.5741 31.5739C31.3013 31.8467 30.9313 31.9999 30.5456 31.9999Z" />
    <path
      d="M20.3637 32.0001H11.6364C11.2507 32.0001 10.8807 31.8468 10.6079 31.5741C10.3351 31.3013 10.1819 30.9313 10.1819 30.5455V20.3637C10.1819 19.978 10.3351 19.608 10.6079 19.3352C10.8807 19.0624 11.2507 18.9092 11.6364 18.9092H20.3637C20.7495 18.9092 21.1194 19.0624 21.3922 19.3352C21.665 19.608 21.8182 19.978 21.8182 20.3637V30.5455C21.8182 30.9313 21.665 31.3013 21.3922 31.5741C21.1194 31.8468 20.7495 32.0001 20.3637 32.0001ZM13.091 29.091H18.9092V21.8183H13.091V29.091Z" />
  </symbol>

  <symbol id="benefits-discount">
    <rect x="1.25" y="1.25" width="37.5" height="23.5" rx="1.75" stroke-width="2.5" stroke-linecap="round"
      stroke-linejoin="round" />
    <path d="M1.66663 6.5H38.3333M6.73909 13.0542H15.8333M6.73909 16.9542H11.6666M25.8333 19.5L34.1666 11.375"
      stroke-width="2.5" stroke-linecap="round" />
    <path
      d="M28.1667 12.1875C28.1667 12.9577 27.5191 13.625 26.6667 13.625C25.8142 13.625 25.1667 12.9577 25.1667 12.1875C25.1667 11.4173 25.8142 10.75 26.6667 10.75C27.5191 10.75 28.1667 11.4173 28.1667 12.1875Z"
      stroke-width="2" />
    <path
      d="M34.8333 18.6875C34.8333 19.4577 34.1858 20.125 33.3333 20.125C32.4809 20.125 31.8333 19.4577 31.8333 18.6875C31.8333 17.9173 32.4809 17.25 33.3333 17.25C34.1858 17.25 34.8333 17.9173 34.8333 18.6875Z"
      stroke-width="2" />
  </symbol>

  <symbol id="social-facebook">
    <path
      d="M8 13.8H10.8571L12 9H8V6.6C8 5.364 8 4.2 10.2857 4.2H12V0.168C11.6274 0.1164 10.2206 0 8.73486 0C5.632 0 3.42857 1.9884 3.42857 5.64V9H0V13.8H3.42857V24H8V13.8Z" />
  </symbol>

  <symbol id="social-instagram">
    <path
      d="M11.625 8.4C10.7001 8.4 9.813 8.77928 9.15897 9.45442C8.50493 10.1295 8.1375 11.0452 8.1375 12C8.1375 12.9548 8.50493 13.8705 9.15897 14.5456C9.813 15.2207 10.7001 15.6 11.625 15.6C12.5499 15.6 13.437 15.2207 14.091 14.5456C14.7451 13.8705 15.1125 12.9548 15.1125 12C15.1125 11.0452 14.7451 10.1295 14.091 9.45442C13.437 8.77928 12.5499 8.4 11.625 8.4ZM11.625 6C13.1666 6 14.645 6.63214 15.7351 7.75736C16.8251 8.88258 17.4375 10.4087 17.4375 12C17.4375 13.5913 16.8251 15.1174 15.7351 16.2426C14.645 17.3679 13.1666 18 11.625 18C10.0834 18 8.605 17.3679 7.51494 16.2426C6.42489 15.1174 5.8125 13.5913 5.8125 12C5.8125 10.4087 6.42489 8.88258 7.51494 7.75736C8.605 6.63214 10.0834 6 11.625 6ZM19.1812 5.7C19.1812 6.09783 19.0282 6.47936 18.7556 6.76066C18.4831 7.04197 18.1135 7.2 17.7281 7.2C17.3427 7.2 16.9731 7.04197 16.7006 6.76066C16.4281 6.47936 16.275 6.09783 16.275 5.7C16.275 5.30218 16.4281 4.92064 16.7006 4.63934C16.9731 4.35804 17.3427 4.2 17.7281 4.2C18.1135 4.2 18.4831 4.35804 18.7556 4.63934C19.0282 4.92064 19.1812 5.30218 19.1812 5.7ZM11.625 2.4C8.74897 2.4 8.27933 2.4084 6.94129 2.4696C6.02989 2.514 5.41841 2.64 4.85111 2.868C4.34659 3.0696 3.98272 3.3108 3.59561 3.7116C3.23176 4.07448 2.952 4.5175 2.77721 5.0076C2.55634 5.5956 2.43428 6.2256 2.39243 7.1652C2.33198 8.49 2.325 8.9532 2.325 12C2.325 14.9688 2.33314 15.4536 2.39243 16.8348C2.43544 17.7744 2.5575 18.4068 2.77721 18.9912C2.97484 19.5132 3.20734 19.8888 3.59329 20.2872C3.98505 20.6904 4.34891 20.9316 4.84879 21.1308C5.42306 21.36 6.03454 21.4872 6.94129 21.5304C8.22469 21.5928 8.67341 21.6 11.625 21.6C14.501 21.6 14.9707 21.5916 16.3087 21.5304C17.2178 21.486 17.8304 21.36 18.3977 21.1332C18.9011 20.9304 19.2673 20.6892 19.6532 20.2908C20.045 19.8864 20.2787 19.5108 20.4716 18.9948C20.6925 18.4032 20.8157 17.7708 20.8576 16.8348C20.918 15.51 20.925 15.0468 20.925 12C20.925 9.0312 20.9169 8.5464 20.8576 7.1652C20.8146 6.2268 20.6925 5.5932 20.4716 5.0076C20.2964 4.518 20.0172 4.07515 19.6544 3.7116C19.303 3.33582 18.8738 3.047 18.3989 2.8668C17.8293 2.6388 17.2178 2.5128 16.3087 2.4696C15.0253 2.4072 14.5766 2.4 11.625 2.4ZM11.625 0C14.7835 0 15.1776 0.0119999 16.4168 0.0719999C17.6549 0.132 18.4977 0.3324 19.2394 0.63C20.0066 0.9348 20.653 1.3476 21.2993 2.0136C21.8904 2.61348 22.3478 3.33911 22.6397 4.14C22.9268 4.9044 23.1221 5.7756 23.1803 7.0536C23.2349 8.3328 23.25 8.7396 23.25 12C23.25 15.2604 23.2384 15.6672 23.1803 16.9464C23.1221 18.2244 22.9268 19.0944 22.6397 19.86C22.3487 20.6613 21.8912 21.3871 21.2993 21.9864C20.718 22.5964 20.0151 23.0685 19.2394 23.37C18.4989 23.6664 17.6549 23.868 16.4168 23.928C15.1776 23.9844 14.7835 24 11.625 24C8.46649 24 8.0724 23.988 6.83317 23.928C5.59511 23.868 4.7523 23.6664 4.01062 23.37C3.23445 23.0694 2.53138 22.5971 1.95068 21.9864C1.35943 21.3866 0.90202 20.661 0.610313 19.86C0.322013 19.0956 0.127875 18.2244 0.0697499 16.9464C0.0151124 15.6672 0 15.2604 0 12C0 8.7396 0.0116249 8.3328 0.0697499 7.0536C0.127875 5.7744 0.322013 4.9056 0.610313 4.14C0.901212 3.33862 1.35873 2.61279 1.95068 2.0136C2.53154 1.40308 3.23457 0.930875 4.01062 0.63C4.7523 0.3324 5.59395 0.132 6.83317 0.0719999C8.0724 0.0155999 8.46649 0 11.625 0Z" />
  </symbol>

  <symbol id="social-viber">
    <path
      d="M21.3 13.05C21.6 10.35 21.6 8.1 21.3 6.15C21.0682 4.60457 20.3295 3.17994 19.2 2.1L18 1.35L15.3 0.45C14.1 0.15 12.6 0 11.1 0H10.5C8.41176 0.0684215 6.34265 0.421685 4.35 1.05C3.45 1.35 2.85 1.8 2.25 2.25C0.75 3.75 0.15 6 0 9.15V11.25L0.15 13.5L0.9 15.75C1.2826 16.5698 1.84564 17.2925 2.54698 17.8639C3.24833 18.4354 4.06982 18.8409 4.95 19.05C4.99582 20.7001 5.04582 22.3501 5.1 24L5.55 23.85L9.15 19.5C11.8806 19.6285 14.6143 19.3248 17.25 18.6C17.8573 18.2626 18.4574 17.9126 19.05 17.55L20.1 16.5L20.85 15L21.3 12.9V13.05ZM14.1 9C14.1 9.3 13.95 9.45 13.65 9.45L13.5 9C13.5 7.8 12.9 7.2 11.85 7.2L11.55 7.05V6.6H11.85C13.35 6.6 14.1 7.35 14.25 8.85L14.1 9ZM15.15 9.6C15.15 8.55 14.85 7.5 14.1 6.75C13.35 6 12.45 5.55 11.1 5.55L10.8 5.25V4.95L11.25 4.8C12.75 4.8 13.8 5.4 14.55 6.3C15.45 7.2 15.75 8.4 15.75 9.6V9.9H15.3L15.15 9.6ZM17.55 10.35L17.4 10.65H17.1L16.95 10.35C16.95 8.25 16.2 6.75 15 5.55C14.4163 4.95352 13.7147 4.48535 12.9398 4.17541C12.165 3.86547 11.334 3.72058 10.5 3.75C10.35 3.75 10.2 3.75 10.2 3.45C10.2 3.15 10.35 3 10.5 3C11.4386 2.99979 12.3677 3.18699 13.233 3.55063C14.0983 3.91427 14.8822 4.44702 15.5389 5.11765C16.1955 5.78827 16.7117 6.58326 17.057 7.45599C17.4024 8.32873 17.57 9.26164 17.55 10.2V10.35ZM16.95 15.45L15.75 16.95C15.3 17.25 14.7 17.4 14.25 17.1C12.3138 16.3677 10.4947 15.3571 8.85 14.1C7.28909 12.889 6.00963 11.3537 5.1 9.6C4.60082 8.72544 4.15014 7.82408 3.75 6.9V6.75C3.6 6.15 3.75 5.7 4.05 5.25L5.55 3.9C6 3.75 6.45 3.9 6.75 4.2C7.27583 5.01635 7.82607 5.81672 8.4 6.6C8.85 7.2 8.7 7.65 8.4 8.1L7.65 8.4L7.35 8.7V9.6L7.95 10.5L8.7 11.7L9.9 12.75L11.7 13.65C12 13.65 12.3 13.65 12.45 13.35L13.05 12.75C13.35 12.3 13.8 12.15 14.4 12.45L16.8 14.25C17.1 14.55 17.25 15 16.95 15.45Z" />
  </symbol>

  <symbol id="communicate-chat">
    <path
      d="M13.6667 0H20.3333C23.8696 0 27.2609 1.40476 29.7614 3.90524C32.2619 6.40573 33.6667 9.79711 33.6667 13.3333C33.6667 16.8696 32.2619 20.2609 29.7614 22.7614C27.2609 25.2619 23.8696 26.6667 20.3333 26.6667V32.5C12 29.1667 0.333339 24.1667 0.333339 13.3333C0.333339 9.79711 1.7381 6.40573 4.23858 3.90524C6.73907 1.40476 10.1305 0 13.6667 0Z" />
  </symbol>

  <symbol id="communicate-message">
    <path
      d="M1.33335 0H25.3333C25.687 0 26.0261 0.140476 26.2762 0.390524C26.5262 0.640573 26.6667 0.979711 26.6667 1.33333V22.6667C26.6667 23.0203 26.5262 23.3594 26.2762 23.6095C26.0261 23.8595 25.687 24 25.3333 24H1.33335C0.979727 24 0.640588 23.8595 0.390539 23.6095C0.140491 23.3594 1.52588e-05 23.0203 1.52588e-05 22.6667V1.33333C1.52588e-05 0.979711 0.140491 0.640573 0.390539 0.390524C0.640588 0.140476 0.979727 0 1.33335 0V0ZM24 5.65067L13.4293 15.1173L2.66668 5.62133V21.3333H24V5.65067ZM3.34802 2.66667L13.4147 11.5493L23.336 2.66667H3.34802Z" />
  </symbol>

  <symbol id="arrow-to-top">
    <path d="M1 8L7 2L13 8" stroke-width="2" />
  </symbol>

  <symbol id="pay-portmone">
    <path d="M84.7863 0.0966797H0V27.4471H84.7863V0.0966797Z" fill="#FF0000" />
    <path
      d="M5.65244 11.3104L7.38463 10.6722V11.4927C7.84047 10.8546 8.56981 10.5811 9.29916 10.5811C10.849 10.5811 12.0342 11.8574 12.0342 13.4073C12.0342 13.4984 12.0342 13.4984 12.0342 13.5896C12.2165 15.0483 11.1225 16.4158 9.57266 16.5981C9.4815 16.5981 9.39033 16.5981 9.29916 16.5981C8.56981 16.5981 7.84047 16.2335 7.38463 15.6865V18.3303H5.65244V11.3104ZM10.2108 13.5896C10.302 12.7691 9.755 12.0397 9.02565 11.9486C8.29631 11.8574 7.4758 12.4044 7.38463 13.1338C7.38463 13.2249 7.38463 13.4073 7.38463 13.4984C7.29346 14.3189 7.84047 15.0483 8.56981 15.1395C9.29916 15.2306 10.1197 14.6836 10.2108 13.9543C10.2108 13.8631 10.2108 13.6808 10.2108 13.5896Z"
      fill="white" />
    <path
      d="M18.8718 10.5811H20.604V11.5839C20.9687 10.7634 21.5157 10.5811 22.6097 10.5811V12.0397H22.5185C21.3333 12.0397 20.6952 12.9514 20.6952 14.4101V16.507H18.963V10.5811H18.8718Z"
      fill="white" />
    <path
      d="M23.7949 14.866V12.0398H23.0655V10.5811H23.7949V9.66943L25.5271 9.03125V10.5811H26.9858V12.0398H25.5271V14.5013C25.5271 14.866 25.7094 15.0483 25.9829 15.0483C26.2564 15.0483 26.5299 14.9572 26.7122 14.866V16.2335C26.3476 16.507 25.8917 16.5982 25.4359 16.5982C24.433 16.507 23.7949 16.1424 23.7949 14.866Z"
      fill="white" />
    <path
      d="M27.5328 10.5814H29.1738V11.4019C29.5385 10.8549 30.1766 10.4902 30.8148 10.4902C31.453 10.4902 32.0912 10.7637 32.4558 11.4019C32.9117 10.8549 33.641 10.4902 34.3704 10.4902C35.5555 10.4902 36.2849 11.2196 36.2849 12.6783V16.5073H34.8262V13.2253C34.8262 12.4048 34.4615 12.0401 33.8234 12.0401C33.1852 12.0401 32.8205 12.4048 32.8205 13.2253V16.5073H31.0883V13.2253C31.0883 12.4048 30.7236 12.0401 30.0855 12.0401C29.4473 12.0401 29.1738 12.4048 29.1738 13.2253V16.5073H27.4416V10.5814H27.5328Z"
      fill="white" />
    <path
      d="M43.6695 10.5814H45.4017V11.4019C45.7664 10.8549 46.4046 10.4902 47.1339 10.4902C48.2279 10.4902 49.0484 11.3107 49.1396 12.3136C49.1396 12.4048 49.1396 12.4959 49.1396 12.6783V16.5073H47.4074V13.2253C47.4074 12.4048 47.0427 12.0401 46.4046 12.0401C45.7664 12.0401 45.4017 12.4048 45.4017 13.2253V16.5073H43.6695V10.5814Z"
      fill="white" />
    <path
      d="M49.6866 13.6809C49.5954 12.0399 50.8718 10.7635 52.4217 10.6724H52.5128C54.4273 10.6724 55.339 12.1311 55.339 13.8632C55.339 13.9544 55.339 14.1368 55.339 14.3191H51.2365C51.3276 15.0484 51.9658 15.5043 52.6952 15.4131C53.2422 15.4131 53.698 15.2308 54.1538 14.8661L54.6097 16.1424C54.0627 16.5983 53.4245 16.7806 52.6952 16.7806C51.0541 16.8718 49.6866 15.5954 49.6866 13.9544C49.6866 13.8632 49.6866 13.7721 49.6866 13.6809ZM53.7892 13.0427C53.7892 12.4046 53.2422 11.8575 52.604 11.7664C51.9658 11.7664 51.4188 12.3134 51.3276 13.0427H53.7892Z"
      fill="white" />
    <path
      d="M57.8917 13.5896C57.8917 11.9486 59.1681 10.5811 60.8091 10.5811H60.9003C61.5384 10.5811 62.1766 10.7634 62.7236 11.1281C62.6325 11.4927 62.1766 12.4956 62.1766 12.4956C61.8119 12.1309 61.3561 11.9486 60.8091 11.9486C59.8974 12.0397 59.2592 12.8603 59.4416 13.7719C59.5327 14.5013 60.1709 15.1395 60.9003 15.1395C61.4473 15.1395 61.9031 14.866 62.2678 14.5013L62.8148 15.8688C62.2678 16.3246 61.6296 16.507 60.9003 16.507C59.2592 16.507 57.8917 15.2306 57.8917 13.5896C57.8917 13.6808 57.8917 13.5896 57.8917 13.5896Z"
      fill="white" />
    <path
      d="M70.0171 10.5814H71.7493V11.4019C72.114 10.8549 72.7521 10.4902 73.3903 10.4902C74.0285 10.4902 74.6667 10.7637 75.0314 11.4019C75.4872 10.8549 76.2165 10.4902 76.9459 10.4902C78.1311 10.4902 78.8604 11.2196 78.8604 12.6783V16.5073H77.4017V13.2253C77.4017 12.4048 77.037 12.0401 76.3989 12.0401C75.7607 12.0401 75.396 12.4048 75.396 13.2253V16.5073H73.6638V13.2253C73.6638 12.4048 73.2992 12.0401 72.661 12.0401C72.0228 12.0401 71.6581 12.4048 71.6581 13.2253V16.5073H69.9259L70.0171 10.5814Z"
      fill="white" />
    <path
      d="M56.6154 16.5983C57.0685 16.5983 57.4359 16.1901 57.4359 15.6866C57.4359 15.1831 57.0685 14.7749 56.6154 14.7749C56.1622 14.7749 55.7949 15.1831 55.7949 15.6866C55.7949 16.1901 56.1622 16.5983 56.6154 16.5983Z"
      fill="white" />
    <path
      d="M15.3162 16.5984C13.584 16.5984 12.2165 15.2308 12.2165 13.4986C12.2165 11.7664 13.584 10.3989 15.3162 10.3989C17.0484 10.3989 18.416 11.7664 18.416 13.4986C18.3248 15.2308 16.9573 16.5984 15.3162 16.5984ZM15.3162 12.04C14.4957 12.04 13.8575 12.6781 13.8575 13.4986C13.8575 14.3192 14.4957 14.9573 15.3162 14.9573C16.1367 14.9573 16.7749 14.3192 16.7749 13.4986C16.6838 12.7693 16.0456 12.1311 15.3162 12.04Z"
      fill="white" />
    <path
      d="M40.114 16.5984C38.3818 16.5984 37.0143 15.2308 37.0143 13.4986C37.0143 11.7664 38.3818 10.3989 40.114 10.3989C41.8462 10.3989 43.2137 11.7664 43.2137 13.4986C43.2137 15.2308 41.8462 16.5984 40.114 16.5984ZM40.114 12.04C39.2935 12.04 38.6553 12.6781 38.6553 13.4986C38.6553 14.3192 39.2935 14.9573 40.114 14.9573C40.9345 14.9573 41.5727 14.3192 41.5727 13.4986C41.5727 12.7693 40.9345 12.1311 40.114 12.04Z"
      fill="white" />
    <path
      d="M66.188 16.5984C64.4558 16.5984 63.0883 15.2308 63.0883 13.4986C63.0883 11.7664 64.4558 10.3989 66.188 10.3989C67.9202 10.3989 69.2877 11.7664 69.2877 13.4986C69.2877 15.2308 67.9202 16.5984 66.188 16.5984ZM66.188 12.04C65.3675 12.04 64.7293 12.6781 64.7293 13.4986C64.7293 14.3192 65.3675 14.9573 66.188 14.9573C67.0085 14.9573 67.6467 14.3192 67.6467 13.4986C67.6467 12.7693 67.0085 12.1311 66.188 12.04Z"
      fill="white" />
  </symbol>

  <symbol id="pay-master">
    <path
      d="M41.5271 12.7635C41.5271 19.7835 35.7835 25.5271 28.7635 25.5271C21.7436 25.5271 16 19.7835 16 12.7635C16 5.74359 21.7436 0 28.7635 0C35.7835 0 41.5271 5.74359 41.5271 12.7635Z"
      fill="#F79F1A" />
    <path
      d="M25.755 12.7635C25.755 19.7835 20.0114 25.5271 12.9915 25.5271C5.97153 25.5271 0.227936 19.7835 0.227936 12.7635C0.227936 5.74359 5.97153 0 12.9915 0C20.0114 0 25.755 5.74359 25.755 12.7635Z"
      fill="#EA001B" />
    <path
      d="M20.9231 2.73505C15.3618 7.11112 14.4502 15.1339 18.8262 20.6952C19.4644 21.5157 20.1938 22.245 20.9231 22.792C26.4843 18.416 27.396 10.3932 23.02 4.83191C22.3818 4.10257 21.6524 3.37322 20.9231 2.73505Z"
      fill="#FF5F01" />
    <path
      d="M3.14532 32H2.41597V28.3533H3.14532V28.8091C3.41882 28.5356 3.78349 28.3533 4.14817 28.2621C4.60401 28.2621 5.05985 28.5356 5.33335 28.9003C5.60685 28.5356 5.97153 28.2621 6.51854 28.2621C7.15672 28.2621 7.70373 28.7179 7.88606 29.3561V31.8177H7.15671V29.7208C7.15671 29.7208 7.15672 29.0826 6.33621 29.0826C5.51569 29.0826 5.42452 29.7208 5.42452 29.7208V31.8177H4.69518V29.7208C4.78634 29.7208 4.69518 29.0826 4.057 29.0826C3.23649 29.0826 3.23649 29.812 3.23649 29.812V32H3.14532Z"
      fill="white" />
    <path
      d="M25.0257 28.3533C24.661 28.4444 24.2963 28.6268 24.0228 28.8091V28.2621H23.2935V31.7265H24.0228V29.6296C24.0228 29.6296 24.0228 28.9915 24.8433 28.9915C24.9345 28.9915 25.1168 28.9915 25.208 29.0826L25.4815 28.4444C25.3903 28.3533 25.208 28.3533 25.0257 28.3533Z"
      fill="white" />
    <path
      d="M35.3277 28.3533C34.963 28.4444 34.5983 28.6268 34.3248 28.8091V28.2621H33.5955V31.7265H34.3248V29.6296C34.3248 29.6296 34.3248 28.9915 35.1453 28.9915C35.2365 28.9915 35.4188 28.9915 35.51 29.0826L35.7835 28.4444C35.6923 28.3533 35.51 28.3533 35.3277 28.3533Z"
      fill="white" />
    <path
      d="M10.0741 28.3533C9.16241 28.3533 8.34191 29.1738 8.43308 30.1766C8.43308 31.1795 9.16242 32 10.1653 32C10.6211 32 10.9858 31.8177 11.3505 31.5442V31.8177H12.0798V28.3533H11.0769V28.9003C11.1681 28.9003 10.7123 28.3533 10.0741 28.3533ZM10.1653 28.9914C10.8034 28.9914 11.3505 29.4473 11.3505 29.9943C11.3505 30.6325 10.8946 31.1795 10.3476 31.1795C9.70942 31.1795 9.16241 30.7236 9.16241 30.1766V30.0855C9.16241 29.5385 9.61826 29.0826 10.1653 28.9914Z"
      fill="white" />
    <path
      d="M30.7692 28.3533C29.8576 28.3533 29.0371 29.1738 29.1282 30.1766C29.1282 31.1795 29.8576 32 30.8604 32C31.3162 32 31.7721 31.8177 32.1368 31.5442V31.8177H32.5926V28.3533H31.8633V28.9003C31.5898 28.5356 31.2251 28.3533 30.7692 28.3533ZM30.9516 28.9914C31.5898 28.9914 32.1368 29.4473 32.1368 29.9943C32.1368 30.6325 31.6809 31.1795 31.1339 31.1795C30.4957 31.1795 29.9487 30.7236 29.9487 30.1766V30.0855C29.8576 29.5385 30.3134 29.0826 30.9516 28.9914C30.9516 29.0826 30.9516 29.0826 30.9516 28.9914Z"
      fill="white" />
    <path
      d="M37.6069 28.3533C36.6952 28.3533 35.8747 29.1738 35.9658 30.1766C35.9658 31.1795 36.6952 32 37.698 32C38.0627 32 38.5185 31.8176 38.792 31.5441V31.8176H39.5214V27.0769H38.5185V28.8091C38.792 28.9003 38.3362 28.3533 37.6069 28.3533ZM37.7892 28.9914C38.4274 28.9914 38.9744 29.4473 38.9744 29.9943C38.9744 30.6325 38.5185 31.1795 37.9715 31.1795C37.3334 31.1795 36.7863 30.7236 36.7863 30.1766V30.0855C36.6952 29.5384 37.151 29.0826 37.7892 28.9914Z"
      fill="white" />
    <path
      d="M14.0855 31.9088C13.5385 31.9088 13.0826 31.7265 12.6268 31.453L12.9003 30.9971C13.265 31.1795 13.6296 31.2707 13.9943 31.2707C14.2678 31.2707 14.8148 31.1795 14.8148 30.906C14.8148 30.6325 13.9943 30.4501 13.9943 30.4501C13.9943 30.4501 12.718 30.4501 12.718 29.3561C12.718 28.7179 13.3561 28.2621 14.1767 28.2621C14.6325 28.3533 15.0883 28.4444 15.5442 28.7179L15.1795 29.265C14.8148 29.1738 14.5413 28.9915 14.1767 28.9915C13.9031 28.9915 13.5385 29.1738 13.5385 29.3561C13.5385 30.0855 15.6353 29.265 15.6353 30.7236C15.6353 31.7265 14.8148 31.9088 14.0855 31.9088Z"
      fill="white" />
    <path
      d="M16.9117 27.3504V28.3533H16.1823V29.0826H16.9117V30.8148C16.8205 31.3618 17.2764 31.9088 17.9145 32H18.0057C18.2792 31.9088 18.6439 31.9088 18.9174 31.7265L18.6439 30.9972C18.4615 31.0883 18.2792 31.1795 18.0969 31.1795C17.5499 31.1795 17.5499 30.8148 17.5499 30.8148V29.0826H18.8262V28.3533H17.5499V27.3504H16.9117Z"
      fill="white" />
    <path
      d="M21.1054 28.2621C20.1026 28.4444 19.4644 29.4473 19.6467 30.359C19.8291 31.0883 20.3761 31.7265 21.1966 31.8177C21.6525 31.7265 22.1083 31.5442 22.473 31.3618L22.1083 30.8148C21.8348 30.9972 21.4701 31.1795 21.1054 31.1795C20.5584 31.1795 20.1026 30.8148 20.1026 30.2678H22.5641C22.6553 30.2678 22.8376 28.2621 21.1054 28.2621ZM21.0143 28.9915H21.1054C21.5613 28.9915 21.9259 29.265 21.9259 29.7208C21.9259 29.7208 21.9259 29.7208 21.9259 29.812H20.1938C20.1938 29.3561 20.4673 28.9915 21.0143 28.9915C20.9231 28.9915 20.9231 28.9915 21.0143 28.9915Z"
      fill="white" />
    <path
      d="M28.3989 30.906L28.7636 31.5442C28.3989 31.7265 28.0342 31.9088 27.6695 31.9088C26.6667 31.9088 25.8462 31.1795 25.755 30.1766V30.0855C25.755 29.1738 26.4843 28.3533 27.396 28.3533C27.4872 28.3533 27.4872 28.3533 27.5784 28.3533C28.0342 28.3533 28.3989 28.5356 28.8547 28.7179L28.4901 29.4473C28.3077 29.1738 27.9431 29.0826 27.5784 29.0826C26.9402 29.1738 26.5755 29.812 26.7579 30.4501C26.849 30.906 27.2137 31.1795 27.5784 31.2706C27.8519 31.2706 28.1254 31.1795 28.3989 30.906Z"
      fill="white" />
    <path
      d="M40.9801 31.3618C40.8889 31.3618 40.7977 31.3618 40.7066 31.453C40.6154 31.5442 40.6154 31.8177 40.7066 31.9088C40.8889 32 41.0712 32 41.1624 31.9088C41.2536 31.8177 41.2536 31.5442 41.1624 31.453C41.1624 31.3618 41.0712 31.3618 40.9801 31.3618ZM40.9801 32C40.7977 32 40.7066 31.9088 40.7066 31.7265C40.7066 31.5442 40.7977 31.453 40.9801 31.453C41.0712 31.453 41.0712 31.453 41.1624 31.5442C41.2536 31.6353 41.2536 31.8177 41.1624 31.9088C41.0712 31.9088 41.0712 32 40.9801 32ZM40.9801 31.5442V31.8177V32.0912H40.8889L40.9801 31.8177H41.0712H40.9801H41.0712C41.0712 31.8177 41.0712 31.8177 41.0712 31.7265V31.6353C41.0712 31.5442 40.9801 31.5442 40.9801 31.5442ZM40.9801 31.5442C40.9801 31.6353 40.9801 31.6353 40.9801 31.5442C40.9801 31.6353 40.9801 31.6353 40.9801 31.5442Z"
      fill="black" />
  </symbol>

  <symbol id="pay-visa">
    <path
      d="M31.114 6.39887C31.114 9.04274 33.4843 10.5014 35.3077 11.4131C37.1311 12.3248 37.7692 12.8718 37.7692 13.6923C37.7692 14.8775 36.3105 15.4245 34.943 15.5157C33.2108 15.5157 31.5698 15.151 30.1111 14.3305L29.2906 18.3419C30.9316 18.9801 32.755 19.3447 34.5784 19.3447C39.5926 19.3447 42.7835 16.8832 42.8746 13.0541C42.8746 8.22223 36.2194 7.94872 36.2194 5.76069C36.2194 5.12251 36.8576 4.39317 38.2251 4.21083C39.8661 4.02849 41.416 4.302 42.8746 5.03134L43.6952 1.11112C42.2365 0.564108 40.7778 0.290604 39.2279 0.290604C34.396 0.290604 31.114 2.84331 31.114 6.39887ZM51.5356 0.564108C50.6239 0.564108 49.8946 1.11112 49.5299 1.93163L42.4188 18.8889H47.4331L48.4359 16.1539H54.5442L55.0912 18.8889H59.4673L55.6382 0.655276L51.5356 0.564108ZM52.265 5.66952L53.7237 12.5071H49.8034L52.265 5.66952ZM25.0969 0.655276L21.1767 18.8889H25.9174L29.7464 0.655276H25.188H25.0969ZM17.9858 0.655276L13.0627 13.0541L11.057 2.47864C10.8747 1.38462 9.96298 0.655276 8.86896 0.655276H0.846163L0.75499 1.20228C2.39602 1.56696 3.94588 2.0228 5.40457 2.75214C6.04274 3.02565 6.40741 3.66382 6.49858 4.302L10.2365 18.8889H15.2507L22.9088 0.655276H17.8946" />
  </symbol>

  <symbol id="burger-menu">
    <rect width="100" height="20" rx="10"></rect>
    <rect y="30" width="100" height="20" rx="10"></rect>
    <rect y="60" width="100" height="20" rx="10"></rect>
  </symbol>

</svg>